<svg id="check_COVID_me" data-name="check COVID me" xmlns="http://www.w3.org/2000/svg" width="333.68" height="139.62" viewBox="0 0 333.68 139.62">
  <defs>
    <style>
      .cls-1 {
        fill: #50a4d2;
      }

      .cls-2 {
        fill: #ff6056;
      }

      .cls-3 {
        fill: #fff;
      }
    </style>
  </defs>
  <title>checkCOVIDme</title>
  <path class="cls-1" d="M314.52,80.33c-4.37,6.44-8.34,11.27-10.65,12.81a5.6,5.6,0,0,1-3.14.81,5.46,5.46,0,0,1-3-.75c-2.53-1.52-6.54-6.29-10.92-12.79-6.28,1.88-10.39,5-10.39,8.52,0,5.75,10.91,10.41,24.38,10.41s24.38-4.66,24.38-10.41C325.19,85.35,321,82.2,314.52,80.33Z"/>
  <path class="cls-1" d="M300.81,0A32.87,32.87,0,0,0,267.93,32.9c0,17,23.28,54.76,30.63,59.06a5.06,5.06,0,0,0,4.46,0c7-4.58,30.66-42,30.66-59A32.86,32.86,0,0,0,300.81,0Zm0,57.25A24.38,24.38,0,1,1,325.19,32.9,24.37,24.37,0,0,1,300.81,57.28Z"/>
  <path class="cls-2" d="M321,26.21a2.62,2.62,0,0,0-3.34-1.63,4.08,4.08,0,0,0-2.57,2.94l-1.9.5a13,13,0,0,0-3.42-4.5.89.89,0,0,0,0-.28,2.4,2.4,0,0,0,1,.12,2.25,2.25,0,1,0-2.47-2,2.28,2.28,0,0,0,.37,1l-.37.09a12.49,12.49,0,0,0-3.55-1.54l.66-2.84c1.2-.41,2.3-2.41,2.54-3.62a2.63,2.63,0,1,0-5.16-1c-.24,1.22.34,3.59,1.41,4.41l-.65,2.79a12.5,12.5,0,0,0-2.13-.19,12.94,12.94,0,0,0-3.65.53,1.17,1.17,0,0,0-.24-.09,2.81,2.81,0,0,0,.6-.83,2.65,2.65,0,1,0-3.52,1.28,2.68,2.68,0,0,0,1.62.19h0a12.8,12.8,0,0,0-4.29,3l-2.39-1.8c.2-1.26-1.07-3.19-2-4A2.63,2.63,0,0,0,284.24,23c1,.77,3.32,1.35,4.53.78l2.34,1.77a12.86,12.86,0,0,0-2.17,4.25,5.62,5.62,0,0,0-3.08-1.26,2.26,2.26,0,1,0-.2,4.52,5.37,5.37,0,0,0,2.81-.91c0,.43-.07.87-.07,1.31a12.93,12.93,0,0,0,.46,3.37L286.28,38a4.24,4.24,0,0,0-3.71-.47,2.63,2.63,0,0,0,1.88,4.91c1.24-.47,2.64-2.07,2.46-3.38L289.24,38a12.94,12.94,0,0,0,3.63,5.24l-2.47,3.14a4.15,4.15,0,0,0-3.65,1.3,2.63,2.63,0,0,0,4,3.45c.84-1,1.32-2.92.66-4L293.84,44a12.88,12.88,0,0,0,4,2,4,4,0,0,0-.54,1.6,2.63,2.63,0,1,0,5.23.46,4,4,0,0,0-.23-1.62,13.3,13.3,0,0,0,2.84-.51l.92,2.41a4,4,0,0,0-.82,3.93,2.63,2.63,0,1,0,5-1.73,4.08,4.08,0,0,0-3-2.56l-.94-2.47a12.9,12.9,0,0,0,4.31-2.88l1.51,1.38c-.5,1.22.41,3.11,1.48,3.89a2.63,2.63,0,1,0,3.11-4.24,4.2,4.2,0,0,0-3.72-.51l-1.56-1.43a13.12,13.12,0,0,0,2-3.42,4.12,4.12,0,0,0,1.71.81,2.51,2.51,0,0,0,.86-4.95,3.92,3.92,0,0,0-1.68.12c0-.26,0-.51,0-.78a12.84,12.84,0,0,0-.74-4.26l1.78-.47a4,4,0,0,0,3.94.85A2.64,2.64,0,0,0,321,26.21Z"/>
  <ellipse class="cls-3" cx="291.47" cy="36.44" rx="1.3" ry="1.78" transform="translate(3.3 93.38) rotate(-18.3)"/>
  <ellipse class="cls-3" cx="304.96" cy="39.89" rx="3.71" ry="3.32" transform="translate(30.28 178.25) rotate(-34.19)"/>
  <ellipse class="cls-3" cx="309.97" cy="30.46" rx="1.92" ry="2.64" transform="matrix(0.87, -0.5, 0.5, 0.87, 26.3, 159.06)"/>
  <ellipse class="cls-3" cx="295.45" cy="26.88" rx="2.88" ry="2.02" transform="translate(83.91 234.89) rotate(-49.72)"/>
  <ellipse class="cls-3" cx="296.32" cy="40.42" rx="1.7" ry="2.14" transform="translate(36.9 189.22) rotate(-37.61)"/>
  <ellipse class="cls-3" cx="295.55" cy="32.95" rx="1.16" ry="1.6"/>
  <ellipse class="cls-3" cx="304.81" cy="24.99" rx="1.59" ry="2.21" transform="translate(81.91 234.39) rotate(-47.9)"/>
  <path class="cls-1" d="M30.07,25.61a11.51,11.51,0,0,0-7.68-2.41,14.19,14.19,0,0,0-6.87,1.51,12.22,12.22,0,0,0-4.41,4,16.93,16.93,0,0,0-2.37,5.75A31.78,31.78,0,0,0,8,41.22a25.39,25.39,0,0,0,.76,6.24,16.51,16.51,0,0,0,2.36,5.4,11.89,11.89,0,0,0,4.2,3.79,12.43,12.43,0,0,0,6.15,1.43q5.63,0,8.79-2.94a13.35,13.35,0,0,0,3.88-8.3h7.76Q40.69,55.4,35.55,60t-14,4.64A24,24,0,0,1,12.27,63a18,18,0,0,1-6.78-4.82,20.67,20.67,0,0,1-4.11-7.45A31.11,31.11,0,0,1,0,41.22a33.9,33.9,0,0,1,1.34-9.68A22.28,22.28,0,0,1,5.4,23.69a19.08,19.08,0,0,1,6.82-5.27,22.33,22.33,0,0,1,9.55-1.92,28,28,0,0,1,7.36.94,18.07,18.07,0,0,1,6.07,2.9,15.91,15.91,0,0,1,4.32,4.95,18.16,18.16,0,0,1,2.14,7.1H33.81A11.51,11.51,0,0,0,30.07,25.61Z"/>
  <path class="cls-1" d="M63.43,0V24.36h.18a10.16,10.16,0,0,1,2.5-3.62,14.32,14.32,0,0,1,3.61-2.41A19.14,19.14,0,0,1,73.92,17a20.86,20.86,0,0,1,4.23-.45,20.11,20.11,0,0,1,7.59,1.25,12.54,12.54,0,0,1,4.9,3.48,13,13,0,0,1,2.64,5.31A28.87,28.87,0,0,1,94,33.37V63.7H86.45V32.47A9.16,9.16,0,0,0,84,25.69a9.28,9.28,0,0,0-6.87-2.49,15.35,15.35,0,0,0-6,1.07,11.27,11.27,0,0,0-4.24,3,13,13,0,0,0-2.54,4.59,18.6,18.6,0,0,0-.85,5.76V63.7H55.85V0Z"/>
  <path class="cls-1" d="M143.55,60.76q-5.18,3.93-13,3.92a23.72,23.72,0,0,1-9.59-1.78,18.94,18.94,0,0,1-6.82-5A21.12,21.12,0,0,1,110,50.23a37.11,37.11,0,0,1-1.56-9.73,27.76,27.76,0,0,1,1.6-9.63,23.1,23.1,0,0,1,4.51-7.58,20.28,20.28,0,0,1,6.87-5,21,21,0,0,1,8.7-1.79,18.86,18.86,0,0,1,10.21,2.55,20.16,20.16,0,0,1,6.52,6.47,25.74,25.74,0,0,1,3.39,8.56,37.42,37.42,0,0,1,.76,8.83H116.43a18.48,18.48,0,0,0,.71,5.76,13.16,13.16,0,0,0,2.59,4.82,12.85,12.85,0,0,0,4.55,3.34,15.56,15.56,0,0,0,6.51,1.25,13.12,13.12,0,0,0,7.9-2.23,10.83,10.83,0,0,0,4.06-6.78h7.49Q148.72,56.83,143.55,60.76Zm-1.83-29.62A12.88,12.88,0,0,0,139,27a13.23,13.23,0,0,0-4.11-2.77,13,13,0,0,0-5.22-1,13.3,13.3,0,0,0-5.31,1A12.41,12.41,0,0,0,120.26,27a13.44,13.44,0,0,0-2.67,4.15,15.72,15.72,0,0,0-1.16,5h26.5A15.61,15.61,0,0,0,141.72,31.14Z"/>
  <path class="cls-1" d="M191.82,25.61a11.51,11.51,0,0,0-7.68-2.41,14.19,14.19,0,0,0-6.87,1.51,12.22,12.22,0,0,0-4.41,4,16.93,16.93,0,0,0-2.37,5.75,31.78,31.78,0,0,0-.71,6.74,25.39,25.39,0,0,0,.76,6.24,16.51,16.51,0,0,0,2.36,5.4,11.89,11.89,0,0,0,4.2,3.79,12.43,12.43,0,0,0,6.15,1.43q5.63,0,8.79-2.94a13.35,13.35,0,0,0,3.88-8.3h7.76Q202.44,55.4,197.3,60t-14,4.64A24,24,0,0,1,174,63a18,18,0,0,1-6.78-4.82,20.67,20.67,0,0,1-4.11-7.45,31.11,31.11,0,0,1-1.38-9.5,33.9,33.9,0,0,1,1.34-9.68,22.28,22.28,0,0,1,4.06-7.85A19.08,19.08,0,0,1,174,18.42a22.33,22.33,0,0,1,9.55-1.92,28,28,0,0,1,7.36.94,18.07,18.07,0,0,1,6.07,2.9,15.91,15.91,0,0,1,4.32,4.95,18.33,18.33,0,0,1,2.15,7.1h-7.86A11.51,11.51,0,0,0,191.82,25.61Z"/>
  <path class="cls-1" d="M225.63,0V37.74l21.05-20.16h10.17L238.56,34.35,258.19,63.7h-9.63L232.77,39.61l-7.14,6.6V63.7H218V0Z"/>
  <path class="cls-2" d="M32.29,71.15h1a31.42,31.42,0,0,1,17.53,5.33,2.72,2.72,0,0,1,1,1,2.57,2.57,0,0,1,.43,1.34,2.49,2.49,0,0,1-.74,1.84,2.43,2.43,0,0,1-1.76.74,2.59,2.59,0,0,1-1.65-.55,26.72,26.72,0,0,0-13.78-4.54H33.07a26.76,26.76,0,0,0-12.76,3.21A28,28,0,0,0,9.7,89.75,29.32,29.32,0,0,0,5.35,104v1.25a29.2,29.2,0,0,0,3.14,13.23,27.68,27.68,0,0,0,9.78,11A26.54,26.54,0,0,0,32.91,134a26,26,0,0,0,3.37-.23,26.61,26.61,0,0,0,16.6-8.22,2.54,2.54,0,0,1,1.88-.79,2.4,2.4,0,0,1,1.76.75,2.48,2.48,0,0,1,.75,1.84,2.59,2.59,0,0,1-.79,1.88A31.57,31.57,0,0,1,36.83,139a32.22,32.22,0,0,1-3.92.24,31.2,31.2,0,0,1-17.38-5.33A32.52,32.52,0,0,1,4,121,34.53,34.53,0,0,1,.26,105.21a13.33,13.33,0,0,1,.08-1.41A33.82,33.82,0,0,1,5.43,87,32.64,32.64,0,0,1,17.06,75.54,31.82,31.82,0,0,1,32.29,71.15Z"/>
  <path class="cls-2" d="M110.59,75.73a33.27,33.27,0,0,1,12,12.41,34.22,34.22,0,0,1,4.38,17,34.61,34.61,0,0,1-4.38,17.11,33.23,33.23,0,0,1-12,12.45,32.1,32.1,0,0,1-33,0,33.23,33.23,0,0,1-12-12.45,34.61,34.61,0,0,1-4.38-17.11,34.22,34.22,0,0,1,4.38-17,33.27,33.27,0,0,1,12-12.41,32.1,32.1,0,0,1,33.05,0ZM80.05,80.27A28.21,28.21,0,0,0,69.91,90.76a29.92,29.92,0,0,0,0,28.9,28.21,28.21,0,0,0,10.14,10.49,27.31,27.31,0,0,0,28,0,28.21,28.21,0,0,0,10.14-10.49,29.92,29.92,0,0,0,0-28.9,28.21,28.21,0,0,0-10.14-10.49,27.31,27.31,0,0,0-28,0Z"/>
  <path class="cls-2" d="M133.37,70.68a2.31,2.31,0,0,1,1.49.59,2.9,2.9,0,0,1,.94,1.29l17.85,55.75L171.5,72.56a2.91,2.91,0,0,1,.86-1.25,2.43,2.43,0,0,1,1.26-.63h.31a2.31,2.31,0,0,1,1.76.79,2.52,2.52,0,0,1,.75,1.8,2.64,2.64,0,0,1-.16.94L156.16,137v.23l-.08.16a.91.91,0,0,1-.16.23.63.63,0,0,1-.08.32,1.34,1.34,0,0,1-.47.62l-.23.24a.24.24,0,0,1-.16.08.16.16,0,0,0-.12,0l-.11.11a1.41,1.41,0,0,1-.39.08,2.06,2.06,0,0,1-.79.16h-.15a.27.27,0,0,0-.16-.08h-.08a.27.27,0,0,1-.16-.08h-.15a.07.07,0,0,1-.08-.08h-.31V139a.25.25,0,0,0-.16-.07l-.08-.08-.08-.08a.22.22,0,0,0-.15-.08.07.07,0,0,0-.08-.08c-.05,0-.08,0-.08-.08l-.08-.07-.08-.08a1,1,0,0,0-.15-.24l-.08-.08v-.15l-.08-.08v-.08a.23.23,0,0,1-.08-.16.19.19,0,0,0-.08-.15l-.07-.08v-.23L131,74.21a2.65,2.65,0,0,1-.15-.94,2.57,2.57,0,0,1,.62-1.65,2.5,2.5,0,0,1,1.49-.94Z"/>
  <path class="cls-2" d="M192.71,70.76a2.73,2.73,0,0,1,.75,2v63.89a2.6,2.6,0,0,1-.75,1.87,2.31,2.31,0,0,1-1.76.79,2.42,2.42,0,0,1-1.84-.79,2.63,2.63,0,0,1-.74-1.87V72.72A2.74,2.74,0,0,1,190.88,70,2.41,2.41,0,0,1,192.71,70.76Z"/>
  <path class="cls-2" d="M207.9,70.53a1.58,1.58,0,0,1,.47.07H225a1.5,1.5,0,0,1,.47.08h.08a29.6,29.6,0,0,1,15.54,5,33.13,33.13,0,0,1,11.16,12.45,35.53,35.53,0,0,1,4,16.68v.31a35,35,0,0,1-4.15,16.8A33.68,33.68,0,0,1,240.9,134.3a29.3,29.3,0,0,1-15.54,4.89.72.72,0,0,1-.24.08H208a2.39,2.39,0,0,1-1.84-.79,2.52,2.52,0,0,1-.75-1.8V73.11a2.48,2.48,0,0,1,.67-1.64,2.57,2.57,0,0,1,1.6-.94Zm2.58,63.41H225a24.82,24.82,0,0,0,13.16-4,27.32,27.32,0,0,0,9.51-10.49,31.4,31.4,0,0,0,0-29,27.54,27.54,0,0,0-9.59-10.57,25.32,25.32,0,0,0-13.27-4H210.48Z"/>
  <circle class="cls-1" cx="258.7" cy="135.87" r="3.2"/>
  <path class="cls-1" d="M318.26,133.42a6.6,6.6,0,0,0,7.51.43,4.08,4.08,0,0,0,1.72-2.06h5.65a10.75,10.75,0,0,1-4.16,6,12.29,12.29,0,0,1-6.78,1.81,13.35,13.35,0,0,1-5-.89,10.11,10.11,0,0,1-3.75-2.51,11.2,11.2,0,0,1-2.38-3.89,14.12,14.12,0,0,1-.83-5,13.52,13.52,0,0,1,.86-4.89,11.31,11.31,0,0,1,6.21-6.51,12.23,12.23,0,0,1,4.87-.95,11.23,11.23,0,0,1,5.2,1.15,10.53,10.53,0,0,1,3.64,3.1,13,13,0,0,1,2.06,4.43,16.65,16.65,0,0,1,.45,5.21H316.68A6.52,6.52,0,0,0,318.26,133.42Zm7.26-12.3a4.49,4.49,0,0,0-3.5-1.27,5.56,5.56,0,0,0-2.56.52,5,5,0,0,0-1.63,1.29,4.75,4.75,0,0,0-.86,1.63,7.61,7.61,0,0,0-.29,1.54h10.45A7.47,7.47,0,0,0,325.52,121.12Z"/>
  <path class="cls-1" d="M302.93,119.51a6.62,6.62,0,0,0-1.76-2.6,7.12,7.12,0,0,0-2.72-1.45A12.5,12.5,0,0,0,295,115c-6.09,0-8.56,2.85-9.26,3.88-.7-1-3.18-3.88-9.27-3.88a12.55,12.55,0,0,0-3.44.45,7.08,7.08,0,0,0-2.71,1.45,6.64,6.64,0,0,0-1.77,2.6,10.6,10.6,0,0,0-.63,3.87V139h6.42V125.78q0-1.19.09-2.22a4.73,4.73,0,0,1,.5-1.81,3,3,0,0,1,1.2-1.22,4.35,4.35,0,0,1,2.15-.45,4.08,4.08,0,0,1,2.19.52,3.68,3.68,0,0,1,1.31,1.35,5.54,5.54,0,0,1,.64,1.9,15.44,15.44,0,0,1,.16,2.15v13h6.32V126a14,14,0,0,1,.16-2.15,5.33,5.33,0,0,1,.63-1.9A3.76,3.76,0,0,1,291,120.6a4.1,4.1,0,0,1,2.2-.52,4.31,4.31,0,0,1,2.14.45,3,3,0,0,1,1.2,1.22,4.73,4.73,0,0,1,.5,1.81q.09,1,.09,2.22V139h6.42V123.38A10.6,10.6,0,0,0,302.93,119.51Z"/>
</svg>
